<!DOCTYPE svg PUBLIC "-//W3C//DTD SVG 1.1//EN" "http://www.w3.org/Graphics/SVG/1.1/DTD/svg11.dtd">
<!-- Uploaded to: SVG Repo, www.svgrepo.com, Transformed by: SVG Repo Mixer Tools -->
<svg version="1.1" id="Capa_1" xmlns="http://www.w3.org/2000/svg" xmlns:xlink="http://www.w3.org/1999/xlink" viewBox="0 0 205.87 205.87" xml:space="preserve" width="800px" height="800px" fill="#ffffff">
<g id="SVGRepo_bgCarrier" stroke-width="0"/>
<g id="SVGRepo_tracerCarrier" stroke-linecap="round" stroke-linejoin="round"/>
<g id="SVGRepo_iconCarrier"> <g> <g> <rect x="27.407" y="155.218" style="fill:#000000;" width="4.348" height="16.799"/> <rect x="38.287" y="155.218" style="fill:#000000;" width="4.352" height="16.799"/> <circle style="fill:#000000;" cx="151.983" cy="164.949" r="5.619"/> <path style="fill:#000000;" d="M185.757,49.213l-0.157-0.032l-0.075-0.136c-4.123-7.365-11.549-11.76-19.855-11.76 c-1.224,0-2.469,0.097-3.701,0.293l-0.251,0.036l-0.111-0.222C157.731,29.254,149.71,24.2,140.681,24.2 c-12.798,0-23.22,10.422-23.22,23.22c0,0.519,0.032,1.07,0.075,1.628l0.025,0.293l-0.279,0.068 c-7.294,1.657-13.217,6.607-16.466,13.009H21.147L0,148.329v33.341h171.513v-33.505l-9.738-50.122h19.455 c13.589,0,24.64-11.051,24.64-24.633C205.87,61.556,197.406,51.378,185.757,49.213z M167.161,177.318H4.352v-26.555h162.813 v26.555H167.161z M166.739,146.407H4.953l19.598-79.64h74.58c-0.612,2.137-1.024,4.345-1.024,6.639 c0,13.582,11.055,24.633,24.64,24.633h34.586L166.739,146.407z M181.229,94.585h-58.482c-11.689,0-21.183-9.498-21.183-21.176 c0-10.461,7.802-19.462,18.152-20.943c0.458-0.068,0.877-0.319,1.149-0.684c0.268-0.372,0.387-0.837,0.315-1.296 c-0.179-1.127-0.265-2.129-0.265-3.06c0-10.905,8.868-19.77,19.762-19.77c8.181,0,15.403,4.932,18.395,12.569 c0.311,0.787,1.16,1.242,1.993,1.045c1.525-0.347,3.071-0.53,4.588-0.53c7.308,0,13.936,4.137,17.279,10.794 c0.251,0.501,0.734,0.852,1.299,0.938c10.364,1.467,18.184,10.475,18.184,20.943C202.42,85.087,192.911,94.585,181.229,94.585z"/> </g> </g> </g>
</svg>