<svg xmlns="http://www.w3.org/2000/svg" version="1.1" xmlns:xlink="http://www.w3.org/1999/xlink" xmlns:svgjs="http://svgjs.com/svgjs" width="1440" height="560" preserveAspectRatio="none" viewBox="0 0 1440 560"><g mask="url(&quot;#SvgjsMask1019&quot;)" fill="none"><rect width="1440" height="560" x="0" y="0" fill="rgba(255, 255, 255, 1)"></rect><path d="M 0,150 C 57.6,137.4 172.8,83.2 288,87 C 403.2,90.8 460.8,172.8 576,169 C 691.2,165.2 748.8,60.6 864,68 C 979.2,75.4 1036.8,215.6 1152,206 C 1267.2,196.4 1382.4,57.2 1440,20L1440 560L0 560z" fill="rgba(178, 192, 210, 1)"></path><path d="M 0,322 C 96,354.2 288,484.8 480,483 C 672,481.2 768,320.8 960,313 C 1152,305.2 1344,417.8 1440,444L1440 560L0 560z" fill="rgba(188, 204, 224, 1)"></path></g><defs><mask id="SvgjsMask1019"><rect width="1440" height="560" fill="#ffffff"></rect></mask></defs></svg>